<?xml version="1.0" standalone="no"?>
<!DOCTYPE svg PUBLIC "-//W3C//DTD SVG 20010904//EN"
 "http://www.w3.org/TR/2001/REC-SVG-20010904/DTD/svg10.dtd">
<svg version="1.0" xmlns="http://www.w3.org/2000/svg"
 width="1228.000000pt" height="1280.000000pt" viewBox="0 0 1228.000000 1280.000000"
 preserveAspectRatio="xMidYMid meet">
<g transform="translate(0.000000,1280.000000) scale(0.100000,-0.100000)"
fill="#000000" stroke="none">
<path d="M6030 12790 c-47 -4 -175 -13 -285 -20 -939 -54 -1876 -255 -2665
-572 -279 -113 -671 -300 -657 -315 3 -2 48 -13 100 -24 424 -86 752 -330 871
-648 80 -213 94 -481 36 -686 -92 -324 -357 -543 -758 -627 -90 -19 -138 -23
-297 -22 -214 0 -324 18 -443 74 -35 16 -66 30 -69 30 -16 0 46 -76 124 -150
276 -265 672 -413 1233 -460 63 -5 502 -10 975 -10 480 0 931 -5 1020 -10 425
-28 689 -88 965 -221 620 -298 891 -782 950 -1694 23 -360 1 -808 -65 -1334
-14 -106 -25 -205 -25 -220 1 -22 13 -33 82 -71 385 -211 775 -564 1007 -910
329 -491 461 -1128 334 -1615 -107 -409 -381 -665 -712 -665 -156 0 -290 29
-623 134 -373 117 -562 164 -851 211 -251 40 -616 75 -789 75 l-77 0 -209
-144 c-810 -562 -1694 -1073 -2407 -1394 -295 -132 -402 -159 -600 -149 -133
7 -203 24 -313 78 -93 46 -144 91 -202 180 -81 125 -97 248 -47 351 29 60 91
122 163 164 22 13 148 66 280 118 776 304 1813 785 2159 1001 538 336 948 824
1195 1426 354 860 383 2080 69 2844 -205 500 -568 843 -1014 960 -120 32 -260
48 -765 90 -465 39 -587 53 -760 91 -820 181 -1482 586 -1850 1135 -74 108
-157 266 -200 374 -18 44 -33 82 -35 84 -6 5 -91 -169 -154 -316 -376 -881
-628 -2114 -691 -3378 -6 -121 -15 -290 -20 -375 -13 -199 -13 -569 0 -775 5
-88 14 -257 20 -375 99 -1959 649 -3549 1534 -4436 208 -207 434 -336 786
-446 212 -66 382 -96 790 -139 220 -23 656 12 1035 82 920 171 1934 625 2930
1312 1212 837 2304 1876 3171 3017 675 889 1238 1875 1569 2750 240 633 367
1100 405 1485 6 61 15 143 20 183 13 93 13 256 0 358 -5 43 -14 131 -20 194
-13 135 -58 418 -71 441 -8 15 -15 15 -71 3 -104 -22 -343 -53 -500 -64 -511
-36 -1044 33 -1520 196 -319 109 -536 250 -598 386 -46 101 -16 221 82 324
254 269 844 427 1592 428 l259 0 -64 59 c-118 109 -322 267 -484 376 -932 630
-2142 1039 -3520 1191 -472 52 -1111 81 -1325 60z m230 -2011 c443 -72 753
-502 665 -924 -38 -184 -176 -361 -345 -443 -112 -55 -215 -76 -340 -69 -120
7 -192 26 -305 81 -199 98 -353 281 -421 501 -15 47 -19 91 -18 205 0 133 2
151 27 216 40 107 74 161 148 239 152 159 367 230 589 194z"/>
<path d="M2265 11601 c-295 -47 -526 -252 -606 -536 -29 -103 -31 -277 -5
-375 72 -266 281 -473 541 -536 92 -22 258 -22 350 0 258 62 479 282 541 541
23 94 23 268 0 355 -69 257 -266 460 -516 529 -84 24 -230 34 -305 22z"/>
<path d="M11217 10889 c-641 -26 -1176 -149 -1332 -306 -53 -53 -65 -95 -40
-147 77 -161 526 -306 1120 -362 240 -22 680 -22 905 0 90 9 174 19 187 22
l22 6 -19 46 c-87 218 -228 460 -381 653 -38 48 -79 89 -91 93 -27 7 -126 6
-371 -5z"/>
<path d="M6620 4704 c-17 -36 -30 -68 -30 -71 0 -11 -155 -313 -211 -410 -87
-150 -219 -356 -323 -502 -66 -93 -84 -126 -74 -132 7 -5 65 -9 129 -9 133 0
374 -21 569 -50 404 -61 487 -65 560 -27 37 18 51 33 75 82 30 59 30 62 29
210 -1 177 -19 258 -88 400 -101 210 -328 435 -554 549 l-53 27 -29 -67z"/>
</g>
</svg>
